<svg id="svg" version="1.1" width="400" height="400" xmlns="http://www.w3.org/2000/svg" xmlns:xlink="http://www.w3.org/1999/xlink" style="display: block;"><g id="svgg"><path id="path1" d="M191.200 0.510 C 191.090 0.620,188.120 0.923,184.600 1.182 C 178.511 1.631,166.663 3.151,162.800 3.978 C 157.202 5.178,153.146 6.100,151.200 6.615 C 144.607 8.360,141.315 9.287,140.600 9.600 C 140.160 9.792,139.350 10.068,138.800 10.214 C 135.698 11.032,123.613 15.669,117.800 18.270 C 113.780 20.069,102.276 26.068,99.268 27.933 C 97.436 29.070,95.871 30.000,95.792 30.000 C 94.816 30.000,77.417 42.438,73.200 46.149 C 72.650 46.633,70.400 48.577,68.200 50.468 C 57.808 59.403,46.841 71.498,38.093 83.675 C 34.266 89.002,28.457 98.157,25.449 103.600 C 22.843 108.317,16.000 122.383,16.000 123.023 C 16.000 123.144,15.661 123.999,15.248 124.922 C 14.598 126.372,11.484 134.892,9.811 139.800 C 8.468 143.739,5.096 156.763,4.425 160.600 C 4.233 161.700,3.693 164.760,3.226 167.400 C 0.930 180.380,-0.178 200.350,0.785 211.400 C 1.909 224.292,2.413 228.843,3.201 233.200 C 3.659 235.730,4.198 238.790,4.400 240.000 C 5.236 245.029,8.693 257.470,11.458 265.400 C 11.994 266.940,12.705 269.010,13.037 270.000 C 13.369 270.990,13.803 272.160,14.002 272.600 C 14.201 273.040,14.833 274.570,15.406 276.000 C 15.980 277.430,16.888 279.550,17.424 280.711 C 17.961 281.872,18.400 282.938,18.400 283.080 C 18.400 284.094,28.768 303.206,31.593 307.400 C 32.186 308.280,33.195 309.810,33.835 310.800 C 34.476 311.790,35.142 312.780,35.316 313.000 C 35.489 313.220,36.908 315.200,38.468 317.400 C 49.878 333.493,67.997 351.560,83.800 362.603 C 85.340 363.679,86.660 364.703,86.733 364.880 C 86.807 365.056,87.033 365.200,87.236 365.200 C 87.440 365.200,89.027 366.179,90.763 367.374 C 98.065 372.404,112.444 380.097,121.800 383.980 C 124.000 384.893,126.160 385.809,126.600 386.016 C 127.916 386.636,135.071 389.161,140.200 390.816 C 152.069 394.647,164.447 397.275,178.800 399.012 C 198.865 401.441,226.763 399.631,246.800 394.601 C 248.010 394.297,250.170 393.757,251.600 393.400 C 254.751 392.614,264.060 389.777,266.000 389.011 C 266.770 388.708,269.650 387.618,272.400 386.590 C 275.150 385.562,278.517 384.199,279.883 383.560 C 281.249 382.922,282.484 382.400,282.627 382.400 C 282.952 382.400,293.963 376.839,296.400 375.444 C 297.390 374.877,298.560 374.223,299.000 373.990 C 299.872 373.527,299.787 373.578,305.000 370.417 C 325.515 357.977,343.627 341.511,359.798 320.600 C 361.020 319.021,362.960 316.278,366.449 311.200 C 372.039 303.064,379.489 289.525,383.179 280.800 C 383.876 279.150,384.611 277.440,384.812 277.000 C 385.650 275.167,388.572 267.341,389.966 263.200 C 390.705 261.004,391.630 257.894,393.121 252.600 C 395.264 244.993,397.753 232.761,398.230 227.500 C 398.384 225.795,398.657 224.400,398.837 224.400 C 399.016 224.400,399.140 223.635,399.112 222.700 C 399.083 221.765,399.294 217.760,399.579 213.800 C 400.121 206.294,399.915 187.218,399.219 180.400 C 398.678 175.101,397.661 167.622,397.430 167.248 C 397.315 167.063,396.945 165.311,396.607 163.355 C 394.731 152.506,389.241 133.450,386.016 126.600 C 385.809 126.160,384.906 124.044,384.010 121.897 C 362.977 71.533,316.865 28.307,266.600 11.837 C 265.500 11.477,264.240 11.020,263.800 10.823 C 261.349 9.722,244.786 5.271,240.000 4.426 C 238.790 4.212,235.235 3.586,232.100 3.033 C 228.966 2.481,224.736 1.918,222.700 1.782 C 220.665 1.646,218.730 1.444,218.400 1.332 C 217.173 0.916,191.567 0.143,191.200 0.510 M212.000 80.341 C 236.221 87.498,250.465 120.077,243.155 151.600 C 240.264 164.067,233.159 176.105,224.956 182.434 L 222.715 184.163 224.457 185.678 C 228.233 188.962,234.447 193.679,239.400 197.021 C 242.260 198.952,246.310 201.706,248.400 203.144 C 264.968 214.535,269.242 217.464,275.000 221.367 C 281.992 226.107,285.010 228.212,286.800 229.594 C 289.882 231.975,298.213 236.397,301.053 237.159 C 322.873 243.020,338.891 239.319,355.841 224.498 C 360.774 220.184,368.967 210.923,371.735 206.531 C 375.120 201.161,377.391 197.987,377.538 198.420 C 377.782 199.143,376.798 215.155,376.002 223.400 C 373.286 251.540,368.702 269.443,360.332 284.600 C 343.949 314.268,327.411 323.308,304.579 315.076 C 294.195 311.332,281.403 300.337,269.121 284.600 C 266.179 280.830,246.317 256.002,239.363 247.400 C 238.652 246.520,232.885 239.320,226.547 231.400 C 220.210 223.480,214.569 216.461,214.012 215.803 C 210.883 212.100,194.505 195.213,183.945 184.800 C 174.639 175.623,172.185 172.592,168.968 166.303 C 156.367 141.668,160.394 108.538,178.169 90.605 C 184.392 84.326,189.329 81.625,198.600 79.428 C 200.483 78.982,209.473 79.594,212.000 80.341 M180.406 205.261 C 190.166 216.130,190.329 216.330,189.737 216.746 C 188.974 217.283,178.686 229.886,169.600 241.413 C 168.170 243.228,159.091 254.587,149.424 266.656 C 139.757 278.725,130.490 290.295,128.831 292.367 C 104.525 322.715,77.490 329.503,57.809 310.200 C 40.390 293.114,30.869 269.704,26.577 233.400 C 25.589 225.043,23.821 201.646,24.153 201.314 C 24.326 201.140,27.356 205.682,30.756 211.216 C 31.722 212.787,33.702 215.370,35.156 216.955 C 36.610 218.540,38.879 221.072,40.197 222.582 C 46.987 230.358,59.044 238.439,68.200 241.351 C 82.309 245.838,101.407 242.504,114.659 233.239 C 117.420 231.309,129.717 222.852,134.200 219.801 C 136.180 218.453,141.220 215.006,145.400 212.142 C 149.580 209.278,155.340 205.342,158.200 203.395 C 161.060 201.449,164.930 198.734,166.800 197.363 C 168.670 195.991,170.383 194.854,170.606 194.835 C 170.829 194.816,175.239 199.507,180.406 205.261 " stroke="none" fill="#3F51B5" fill-rule="evenodd"></path></g></svg>
